<mxfile host="Electron" modified="2024-12-20T00:34:15.265Z" agent="Mozilla/5.0 (Windows NT 10.0; Win64; x64) AppleWebKit/537.36 (KHTML, like Gecko) draw.io/23.1.5 Chrome/120.0.6099.109 Electron/28.1.0 Safari/537.36" etag="Ic6fQDM5eAneiBOp1U3k" version="23.1.5" type="device">
  <diagram name="Page-1" id="N4Hway4Gmnab69VVQXtN">
    <mxGraphModel dx="1038" dy="554" grid="1" gridSize="10" guides="1" tooltips="1" connect="1" arrows="1" fold="1" page="1" pageScale="1" pageWidth="850" pageHeight="1100" math="0" shadow="0">
      <root>
        <mxCell id="0" />
        <mxCell id="1" parent="0" />
        <mxCell id="2P2dQmRAsDbsciPYmvZF-1" value="&lt;font style=&quot;font-size: 16px;&quot;&gt;Program Stack&lt;/font&gt;" style="rounded=0;whiteSpace=wrap;html=1;" vertex="1" parent="1">
          <mxGeometry x="10" y="390" width="240" height="100" as="geometry" />
        </mxCell>
        <mxCell id="2P2dQmRAsDbsciPYmvZF-2" value="&lt;font style=&quot;font-size: 16px;&quot;&gt;Exception Frame&lt;/font&gt;" style="rounded=0;whiteSpace=wrap;html=1;" vertex="1" parent="1">
          <mxGeometry x="10" y="180" width="240" height="210" as="geometry" />
        </mxCell>
        <mxCell id="2P2dQmRAsDbsciPYmvZF-3" value="&lt;font style=&quot;font-size: 16px;&quot;&gt;IRQ Handler Frame&lt;/font&gt;" style="rounded=0;whiteSpace=wrap;html=1;" vertex="1" parent="1">
          <mxGeometry x="10" y="100" width="240" height="80" as="geometry" />
        </mxCell>
        <mxCell id="2P2dQmRAsDbsciPYmvZF-5" value="" style="childLayout=tableLayout;recursiveResize=0;shadow=0;fillColor=none;" vertex="1" parent="1">
          <mxGeometry x="370" y="80" width="180" height="450" as="geometry" />
        </mxCell>
        <mxCell id="2P2dQmRAsDbsciPYmvZF-28" style="shape=tableRow;horizontal=0;startSize=0;swimlaneHead=0;swimlaneBody=0;top=0;left=0;bottom=0;right=0;dropTarget=0;collapsible=0;recursiveResize=0;expand=0;fontStyle=0;fillColor=none;strokeColor=inherit;" vertex="1" parent="2P2dQmRAsDbsciPYmvZF-5">
          <mxGeometry width="180" height="50" as="geometry" />
        </mxCell>
        <mxCell id="2P2dQmRAsDbsciPYmvZF-29" value="...." style="connectable=0;recursiveResize=0;strokeColor=inherit;fillColor=none;align=center;whiteSpace=wrap;html=1;" vertex="1" parent="2P2dQmRAsDbsciPYmvZF-28">
          <mxGeometry width="180" height="50" as="geometry">
            <mxRectangle width="180" height="50" as="alternateBounds" />
          </mxGeometry>
        </mxCell>
        <mxCell id="2P2dQmRAsDbsciPYmvZF-6" value="" style="shape=tableRow;horizontal=0;startSize=0;swimlaneHead=0;swimlaneBody=0;top=0;left=0;bottom=0;right=0;dropTarget=0;collapsible=0;recursiveResize=0;expand=0;fontStyle=0;fillColor=none;strokeColor=inherit;" vertex="1" parent="2P2dQmRAsDbsciPYmvZF-5">
          <mxGeometry y="50" width="180" height="50" as="geometry" />
        </mxCell>
        <mxCell id="2P2dQmRAsDbsciPYmvZF-7" value="xPSR" style="connectable=0;recursiveResize=0;strokeColor=inherit;fillColor=none;align=center;whiteSpace=wrap;html=1;" vertex="1" parent="2P2dQmRAsDbsciPYmvZF-6">
          <mxGeometry width="180" height="50" as="geometry">
            <mxRectangle width="180" height="50" as="alternateBounds" />
          </mxGeometry>
        </mxCell>
        <mxCell id="2P2dQmRAsDbsciPYmvZF-10" style="shape=tableRow;horizontal=0;startSize=0;swimlaneHead=0;swimlaneBody=0;top=0;left=0;bottom=0;right=0;dropTarget=0;collapsible=0;recursiveResize=0;expand=0;fontStyle=0;fillColor=none;strokeColor=inherit;" vertex="1" parent="2P2dQmRAsDbsciPYmvZF-5">
          <mxGeometry y="100" width="180" height="49" as="geometry" />
        </mxCell>
        <mxCell id="2P2dQmRAsDbsciPYmvZF-11" value="PC&lt;br&gt;(Place in program to return to)" style="connectable=0;recursiveResize=0;strokeColor=#d6b656;fillColor=#fff2cc;align=center;whiteSpace=wrap;html=1;" vertex="1" parent="2P2dQmRAsDbsciPYmvZF-10">
          <mxGeometry width="180" height="49" as="geometry">
            <mxRectangle width="180" height="49" as="alternateBounds" />
          </mxGeometry>
        </mxCell>
        <mxCell id="2P2dQmRAsDbsciPYmvZF-14" style="shape=tableRow;horizontal=0;startSize=0;swimlaneHead=0;swimlaneBody=0;top=0;left=0;bottom=0;right=0;dropTarget=0;collapsible=0;recursiveResize=0;expand=0;fontStyle=0;fillColor=none;strokeColor=inherit;" vertex="1" parent="2P2dQmRAsDbsciPYmvZF-5">
          <mxGeometry y="149" width="180" height="50" as="geometry" />
        </mxCell>
        <mxCell id="2P2dQmRAsDbsciPYmvZF-15" value="LR" style="connectable=0;recursiveResize=0;strokeColor=inherit;fillColor=none;align=center;whiteSpace=wrap;html=1;" vertex="1" parent="2P2dQmRAsDbsciPYmvZF-14">
          <mxGeometry width="180" height="50" as="geometry">
            <mxRectangle width="180" height="50" as="alternateBounds" />
          </mxGeometry>
        </mxCell>
        <mxCell id="2P2dQmRAsDbsciPYmvZF-18" style="shape=tableRow;horizontal=0;startSize=0;swimlaneHead=0;swimlaneBody=0;top=0;left=0;bottom=0;right=0;dropTarget=0;collapsible=0;recursiveResize=0;expand=0;fontStyle=0;fillColor=none;strokeColor=inherit;" vertex="1" parent="2P2dQmRAsDbsciPYmvZF-5">
          <mxGeometry y="199" width="180" height="51" as="geometry" />
        </mxCell>
        <mxCell id="2P2dQmRAsDbsciPYmvZF-19" value="R12" style="connectable=0;recursiveResize=0;strokeColor=inherit;fillColor=none;align=center;whiteSpace=wrap;html=1;" vertex="1" parent="2P2dQmRAsDbsciPYmvZF-18">
          <mxGeometry width="180" height="51" as="geometry">
            <mxRectangle width="180" height="51" as="alternateBounds" />
          </mxGeometry>
        </mxCell>
        <mxCell id="2P2dQmRAsDbsciPYmvZF-20" style="shape=tableRow;horizontal=0;startSize=0;swimlaneHead=0;swimlaneBody=0;top=0;left=0;bottom=0;right=0;dropTarget=0;collapsible=0;recursiveResize=0;expand=0;fontStyle=0;fillColor=none;strokeColor=inherit;" vertex="1" parent="2P2dQmRAsDbsciPYmvZF-5">
          <mxGeometry y="250" width="180" height="50" as="geometry" />
        </mxCell>
        <mxCell id="2P2dQmRAsDbsciPYmvZF-21" value="R3" style="connectable=0;recursiveResize=0;strokeColor=inherit;fillColor=none;align=center;whiteSpace=wrap;html=1;" vertex="1" parent="2P2dQmRAsDbsciPYmvZF-20">
          <mxGeometry width="180" height="50" as="geometry">
            <mxRectangle width="180" height="50" as="alternateBounds" />
          </mxGeometry>
        </mxCell>
        <mxCell id="2P2dQmRAsDbsciPYmvZF-22" style="shape=tableRow;horizontal=0;startSize=0;swimlaneHead=0;swimlaneBody=0;top=0;left=0;bottom=0;right=0;dropTarget=0;collapsible=0;recursiveResize=0;expand=0;fontStyle=0;fillColor=none;strokeColor=inherit;" vertex="1" parent="2P2dQmRAsDbsciPYmvZF-5">
          <mxGeometry y="300" width="180" height="50" as="geometry" />
        </mxCell>
        <mxCell id="2P2dQmRAsDbsciPYmvZF-23" value="R2" style="connectable=0;recursiveResize=0;strokeColor=inherit;fillColor=none;align=center;whiteSpace=wrap;html=1;" vertex="1" parent="2P2dQmRAsDbsciPYmvZF-22">
          <mxGeometry width="180" height="50" as="geometry">
            <mxRectangle width="180" height="50" as="alternateBounds" />
          </mxGeometry>
        </mxCell>
        <mxCell id="2P2dQmRAsDbsciPYmvZF-24" style="shape=tableRow;horizontal=0;startSize=0;swimlaneHead=0;swimlaneBody=0;top=0;left=0;bottom=0;right=0;dropTarget=0;collapsible=0;recursiveResize=0;expand=0;fontStyle=0;fillColor=none;strokeColor=inherit;" vertex="1" parent="2P2dQmRAsDbsciPYmvZF-5">
          <mxGeometry y="350" width="180" height="50" as="geometry" />
        </mxCell>
        <mxCell id="2P2dQmRAsDbsciPYmvZF-25" value="R1" style="connectable=0;recursiveResize=0;strokeColor=inherit;fillColor=none;align=center;whiteSpace=wrap;html=1;" vertex="1" parent="2P2dQmRAsDbsciPYmvZF-24">
          <mxGeometry width="180" height="50" as="geometry">
            <mxRectangle width="180" height="50" as="alternateBounds" />
          </mxGeometry>
        </mxCell>
        <mxCell id="2P2dQmRAsDbsciPYmvZF-26" style="shape=tableRow;horizontal=0;startSize=0;swimlaneHead=0;swimlaneBody=0;top=0;left=0;bottom=0;right=0;dropTarget=0;collapsible=0;recursiveResize=0;expand=0;fontStyle=0;fillColor=none;strokeColor=inherit;" vertex="1" parent="2P2dQmRAsDbsciPYmvZF-5">
          <mxGeometry y="400" width="180" height="50" as="geometry" />
        </mxCell>
        <mxCell id="2P2dQmRAsDbsciPYmvZF-27" value="R0" style="connectable=0;recursiveResize=0;strokeColor=inherit;fillColor=none;align=center;whiteSpace=wrap;html=1;" vertex="1" parent="2P2dQmRAsDbsciPYmvZF-26">
          <mxGeometry width="180" height="50" as="geometry">
            <mxRectangle width="180" height="50" as="alternateBounds" />
          </mxGeometry>
        </mxCell>
        <mxCell id="2P2dQmRAsDbsciPYmvZF-31" value="" style="shape=table;startSize=0;container=1;collapsible=0;childLayout=tableLayout;fontSize=16;" vertex="1" parent="1">
          <mxGeometry x="650" y="160" width="150" height="125" as="geometry" />
        </mxCell>
        <mxCell id="2P2dQmRAsDbsciPYmvZF-32" value="" style="shape=tableRow;horizontal=0;startSize=0;swimlaneHead=0;swimlaneBody=0;strokeColor=inherit;top=0;left=0;bottom=0;right=0;collapsible=0;dropTarget=0;fillColor=none;points=[[0,0.5],[1,0.5]];portConstraint=eastwest;fontSize=16;" vertex="1" parent="2P2dQmRAsDbsciPYmvZF-31">
          <mxGeometry width="150" height="50" as="geometry" />
        </mxCell>
        <mxCell id="2P2dQmRAsDbsciPYmvZF-33" value="OSHelper" style="shape=partialRectangle;html=1;whiteSpace=wrap;connectable=0;strokeColor=inherit;overflow=hidden;fillColor=none;top=0;left=0;bottom=0;right=0;pointerEvents=1;fontSize=16;" vertex="1" parent="2P2dQmRAsDbsciPYmvZF-32">
          <mxGeometry width="150" height="50" as="geometry">
            <mxRectangle width="150" height="50" as="alternateBounds" />
          </mxGeometry>
        </mxCell>
        <mxCell id="2P2dQmRAsDbsciPYmvZF-36" value="" style="shape=tableRow;horizontal=0;startSize=0;swimlaneHead=0;swimlaneBody=0;strokeColor=inherit;top=0;left=0;bottom=0;right=0;collapsible=0;dropTarget=0;fillColor=none;points=[[0,0.5],[1,0.5]];portConstraint=eastwest;fontSize=16;" vertex="1" parent="2P2dQmRAsDbsciPYmvZF-31">
          <mxGeometry y="50" width="150" height="75" as="geometry" />
        </mxCell>
        <mxCell id="2P2dQmRAsDbsciPYmvZF-37" value="0x 20xxxxxx" style="shape=partialRectangle;html=1;whiteSpace=wrap;connectable=0;strokeColor=inherit;overflow=hidden;fillColor=none;top=0;left=0;bottom=0;right=0;pointerEvents=1;fontSize=16;" vertex="1" parent="2P2dQmRAsDbsciPYmvZF-36">
          <mxGeometry width="150" height="75" as="geometry">
            <mxRectangle width="150" height="75" as="alternateBounds" />
          </mxGeometry>
        </mxCell>
        <mxCell id="2P2dQmRAsDbsciPYmvZF-44" style="edgeStyle=orthogonalEdgeStyle;rounded=0;orthogonalLoop=1;jettySize=auto;html=1;exitX=0;exitY=0.5;exitDx=0;exitDy=0;entryX=1;entryY=0.5;entryDx=0;entryDy=0;" edge="1" parent="1" source="2P2dQmRAsDbsciPYmvZF-36" target="2P2dQmRAsDbsciPYmvZF-10">
          <mxGeometry relative="1" as="geometry" />
        </mxCell>
      </root>
    </mxGraphModel>
  </diagram>
</mxfile>
